<mxfile host="app.diagrams.net" agent="Mozilla/5.0 (Windows NT 10.0; Win64; x64) AppleWebKit/537.36 (KHTML, like Gecko) Chrome/121.0.0.0 Safari/537.36" version="25.0.3">
  <diagram name="第 1 页" id="PYrYPgZMRepeaznoZCSB">
    <mxGraphModel dx="1434" dy="738" grid="1" gridSize="10" guides="1" tooltips="1" connect="1" arrows="1" fold="1" page="1" pageScale="1" pageWidth="827" pageHeight="1169" math="0" shadow="0">
      <root>
        <mxCell id="0" />
        <mxCell id="1" parent="0" />
        <mxCell id="GZSzwDQr6I27hjwUHjmn-1" value="MicroJS&lt;div&gt;CmakeLists.txt&lt;/div&gt;" style="rounded=1;whiteSpace=wrap;html=1;" parent="1" vertex="1">
          <mxGeometry x="280" y="280" width="80" height="40" as="geometry" />
        </mxCell>
        <mxCell id="GZSzwDQr6I27hjwUHjmn-2" value="" style="shape=curlyBracket;whiteSpace=wrap;html=1;rounded=1;labelPosition=left;verticalLabelPosition=middle;align=right;verticalAlign=middle;" parent="1" vertex="1">
          <mxGeometry x="370" y="240" width="20" height="120" as="geometry" />
        </mxCell>
        <mxCell id="GZSzwDQr6I27hjwUHjmn-3" value="FreeRTOS-kernel" style="rounded=1;whiteSpace=wrap;html=1;" parent="1" vertex="1">
          <mxGeometry x="400" y="220" width="110" height="30" as="geometry" />
        </mxCell>
        <mxCell id="GZSzwDQr6I27hjwUHjmn-4" value="jerryscript" style="rounded=1;whiteSpace=wrap;html=1;" parent="1" vertex="1">
          <mxGeometry x="400" y="260" width="110" height="30" as="geometry" />
        </mxCell>
        <mxCell id="GZSzwDQr6I27hjwUHjmn-5" value="letter-shell" style="rounded=1;whiteSpace=wrap;html=1;" parent="1" vertex="1">
          <mxGeometry x="400" y="300" width="110" height="30" as="geometry" />
        </mxCell>
        <mxCell id="GZSzwDQr6I27hjwUHjmn-6" value="port" style="rounded=1;whiteSpace=wrap;html=1;" parent="1" vertex="1">
          <mxGeometry x="400" y="340" width="110" height="30" as="geometry" />
        </mxCell>
        <mxCell id="GZSzwDQr6I27hjwUHjmn-7" value="" style="shape=curlyBracket;whiteSpace=wrap;html=1;rounded=1;labelPosition=left;verticalLabelPosition=middle;align=right;verticalAlign=middle;" parent="1" vertex="1">
          <mxGeometry x="520" y="295" width="20" height="120" as="geometry" />
        </mxCell>
        <mxCell id="GZSzwDQr6I27hjwUHjmn-8" value="xxxboard" style="rounded=1;whiteSpace=wrap;html=1;" parent="1" vertex="1">
          <mxGeometry x="550" y="280" width="100" height="30" as="geometry" />
        </mxCell>
        <mxCell id="GZSzwDQr6I27hjwUHjmn-9" value="" style="shape=curlyBracket;whiteSpace=wrap;html=1;rounded=1;labelPosition=left;verticalLabelPosition=middle;align=right;verticalAlign=middle;" parent="1" vertex="1">
          <mxGeometry x="650" y="235" width="20" height="120" as="geometry" />
        </mxCell>
        <mxCell id="GZSzwDQr6I27hjwUHjmn-10" value="FreeRTOS-config.h" style="rounded=1;whiteSpace=wrap;html=1;" parent="1" vertex="1">
          <mxGeometry x="670" y="222.5" width="110" height="25" as="geometry" />
        </mxCell>
        <mxCell id="GZSzwDQr6I27hjwUHjmn-11" value="letter-shell_port.c" style="rounded=1;whiteSpace=wrap;html=1;" parent="1" vertex="1">
          <mxGeometry x="670" y="255" width="110" height="25" as="geometry" />
        </mxCell>
        <mxCell id="GZSzwDQr6I27hjwUHjmn-12" value="letter-shell_config.h" style="rounded=1;whiteSpace=wrap;html=1;" parent="1" vertex="1">
          <mxGeometry x="670" y="287.5" width="110" height="25" as="geometry" />
        </mxCell>
        <mxCell id="GZSzwDQr6I27hjwUHjmn-13" value="board_code" style="rounded=1;whiteSpace=wrap;html=1;" parent="1" vertex="1">
          <mxGeometry x="670" y="330" width="110" height="25" as="geometry" />
        </mxCell>
        <mxCell id="GZSzwDQr6I27hjwUHjmn-14" value="" style="shape=curlyBracket;whiteSpace=wrap;html=1;rounded=1;labelPosition=left;verticalLabelPosition=middle;align=right;verticalAlign=middle;" parent="1" vertex="1">
          <mxGeometry x="790" y="283" width="20" height="120" as="geometry" />
        </mxCell>
        <mxCell id="GZSzwDQr6I27hjwUHjmn-15" value="main.c" style="rounded=1;whiteSpace=wrap;html=1;" parent="1" vertex="1">
          <mxGeometry x="810" y="265" width="120" height="60" as="geometry" />
        </mxCell>
        <mxCell id="GZSzwDQr6I27hjwUHjmn-16" value="gpio_driver.c" style="rounded=1;whiteSpace=wrap;html=1;" parent="1" vertex="1">
          <mxGeometry x="810" y="330" width="120" height="20" as="geometry" />
        </mxCell>
        <mxCell id="GZSzwDQr6I27hjwUHjmn-17" value="xxx_driver.c" style="rounded=1;whiteSpace=wrap;html=1;" parent="1" vertex="1">
          <mxGeometry x="810" y="355" width="120" height="20" as="geometry" />
        </mxCell>
      </root>
    </mxGraphModel>
  </diagram>
</mxfile>
